<svg xmlns="http://www.w3.org/2000/svg" viewBox="0 0 960 500" width="960" height="500" role="img" aria-label="Measure at discrete instants"><title>Measure at discrete instants</title><defs><marker id="arrowhead" viewBox="0 0 10 10" refX="9" refY="5" markerWidth="8" markerHeight="8" orient="auto-start-reverse"><path d="M0 0L10 5L0 10Z" fill="#007c83"/></marker><pattern id="grid" width="24" height="24" patternUnits="userSpaceOnUse"><circle cx="1" cy="1" r="1" fill="#dde7ec"/></pattern></defs><style>
  text{font-family:Segoe UI,Arial,sans-serif;fill:#0b1f33;font-size:20px;font-variant-numeric:tabular-nums}
  .label{font-size:20px}.small,.muted{font-size:17px;fill:#52677a}.title,.heading{font-size:28px;font-weight:700}.value{font-size:28px;font-weight:700;font-family:Consolas,monospace}
  rect.active,path.active,circle.active{fill:#e3f3f2;stroke:#007c83;stroke-width:3}rect.muted,path.muted,circle.muted{fill:#e8eef2;stroke:#839ead;stroke-width:2}
  .accent{fill:#007c83}.error{fill:#b33135}.success{fill:#176749}.wire{stroke:#738e9e;stroke-width:3;fill:none}.signal{stroke:#007c83;stroke-width:4;fill:none;stroke-dasharray:12 6;animation:flow .65s ease-out 1}
  .component{fill:#fff;stroke:#c8d8e1;stroke-width:2}.component.active{fill:#e3f3f2;stroke:#007c83;stroke-width:3}.active text{fill:#005e65}.box-title{font-size:18px;fill:#52677a;font-weight:600}.box-value{font-size:24px;font-weight:700}
  .bit{fill:#f5f8fa;stroke:#c8d8e1;stroke-width:1.5}.bit.active{fill:#fff0d8;stroke:#bc6b00;stroke-width:2}.table-head{fill:#0b1f33}.table-head-text{fill:#fff;font-size:18px;font-weight:600}.table-cell{font-size:18px}.table-row{fill:#fff;stroke:#d9e4eb}.table-row.active{fill:#e0f3ef;stroke:#007c83}
  @keyframes flow{from{stroke-dashoffset:36;opacity:.3}to{stroke-dashoffset:0;opacity:1}}
  @media(prefers-reduced-motion:reduce){*{animation:none!important;transition:none!important}}
</style><rect width="100%" height="100%" fill="#f8fbfc"/><rect width="100%" height="100%" fill="url(#grid)"/><text x="36" y="42" class="title" text-anchor="start"><tspan x="36" dy="0">Measure at discrete instants</tspan></text><path d="M90 390L860 390" stroke="#0b1f33" stroke-width="3" fill="none"/><path d="M90 390L90 85" stroke="#0b1f33" stroke-width="3" fill="none"/><text x="480" y="455" class="label" text-anchor="middle"><tspan x="480" dy="0">Time (s)</tspan></text><text x="35" y="78" class="small" text-anchor="start"><tspan x="35" dy="0">Amplitude</tspan></text><text x="90" y="420" class="small" text-anchor="middle"><tspan x="90" dy="0">0.0</tspan></text><text x="240" y="420" class="small" text-anchor="middle"><tspan x="240" dy="0">0.2</tspan></text><text x="390" y="420" class="small" text-anchor="middle"><tspan x="390" dy="0">0.4</tspan></text><text x="540" y="420" class="small" text-anchor="middle"><tspan x="540" dy="0">0.6</tspan></text><text x="690" y="420" class="small" text-anchor="middle"><tspan x="690" dy="0">0.8</tspan></text><text x="840" y="420" class="small" text-anchor="middle"><tspan x="840" dy="0">1.0</tspan></text><path d="M90,240L91.5,231.83723246118927L93,223.70667963664044L94.5,215.6404291038558L96,207.6703146685689L97.5,199.82779073125684L99,192.14380815099187L100.5,184.64869209654057L102,177.372022366777L103.5,170.34251665273047L105,163.58791720197848L106.5,157.13488133267035L108,151.00887622927047L109.5,145.2340784352165L111,139.83327843914742L112.5,134.8277907312568L114,130.23736968473804L115.5,126.08013159429774L117,122.37248317941747L118.5,119.12905683452732L120,116.36265288163004L121.5,114.08418905327795L123,112.30265740527048L124.5,111.02508882911786L126,110.2565253043247L127.5,110L129,110.2565253043247L130.5,111.02508882911786L132,112.30265740527047L133.5,114.08418905327795L135,116.36265288163003L136.5,119.1290568345273L138,122.37248317941747L139.5,126.08013159429775L141,130.23736968473804L142.5,134.82779073125687L144,139.83327843914736L145.5,145.23407843521653L147,151.00887622927047L148.5,157.13488133267032L150,163.58791720197848L151.5,170.34251665273044L153,177.37202236677703L154.5,184.64869209654051L156,192.1438081509918L157.5,199.8277907312568L159,207.67031466856886L160.5,215.6404291038558L162,223.70667963664042L163.5,231.83723246118925L165,239.99999999999997L166.5,248.16276753881073L168,256.29332036335956L169.5,264.3595708961442L171,272.3296853314311L172.5,280.17220926874313L174,287.85619184900804L175.5,295.3513079034594L177,302.627977633223L178.5,309.65748334726953L180,316.4120827980215L181.5,322.8651186673296L183,328.9911237707295L184.5,334.7659215647835L186,340.16672156085264L187.5,345.17220926874313L189,349.76263031526196L190.5,353.91986840570223L192,357.6275168205825L193.5,360.8709431654727L195,363.63734711837L196.5,365.915810946722L198,367.6973425947295L199.5,368.97491117088214L201,369.74347469567533L202.5,370L204,369.74347469567533L205.5,368.97491117088214L207,367.69734259472955L208.5,365.91581094672205L210,363.63734711837L211.5,360.8709431654727L213,357.6275168205825L214.5,353.9198684057023L216,349.76263031526196L217.5,345.17220926874313L219,340.16672156085264L220.5,334.7659215647836L222,328.99112377072964L223.5,322.86511866732974L225,316.4120827980215L226.5,309.6574833472696L228,302.627977633223L229.5,295.3513079034595L231,287.8561918490081L232.5,280.1722092687432L234,272.32968533143116L235.5,264.3595708961441L237,256.2933203633596L238.5,248.16276753881073L240,240.00000000000003L241.5,231.83723246118922L243,223.70667963664044L244.5,215.64042910385598L246,207.67031466856886L247.5,199.82779073125698L249,192.14380815099196L250.5,184.64869209654057L252,177.37202236677706L253.5,170.34251665273044L255,163.58791720197854L256.5,157.13488133267032L258,151.00887622927058L259.5,145.23407843521647L261,139.8332784391474L262.5,134.82779073125687L264,130.23736968473804L265.5,126.08013159429774L267,122.37248317941749L268.5,119.1290568345273L270,116.36265288163004L271.5,114.08418905327798L273,112.3026574052705L274.5,111.02508882911789L276,110.2565253043247L277.5,110L279,110.2565253043247L280.5,111.02508882911786L282,112.30265740527048L283.5,114.08418905327795L285,116.36265288163003L286.5,119.12905683452728L288,122.3724831794175L289.5,126.08013159429777L291,130.23736968473804L292.5,134.82779073125695L294,139.83327843914734L295.5,145.2340784352166L297,151.00887622927053L298.5,157.13488133267032L300,163.58791720197866L301.5,170.34251665273035L303,177.3720223667769L304.5,184.6486920965404L306,192.14380815099165L307.5,199.82779073125678L309,207.67031466856878L310.5,215.64042910385567L312,223.7066796366405L313.5,231.83723246118927L315,239.99999999999994L316.5,248.16276753881064L318,256.2933203633594L319.5,264.359570896144L321,272.3296853314311L322.5,280.17220926874313L324,287.85619184900804L325.5,295.35130790345954L327,302.627977633223L328.5,309.65748334726953L330,316.41208279802146L331.5,322.86511866732957L333,328.9911237707294L334.5,334.7659215647835L336,340.1667215608526L337.5,345.17220926874325L339,349.7626303152619L340.5,353.9198684057023L342,357.62751682058257L343.5,360.8709431654727L345,363.63734711837003L346.5,365.915810946722L348,367.6973425947295L349.5,368.97491117088214L351,369.7434746956753L352.5,370L354,369.74347469567533L355.5,368.97491117088214L357,367.69734259472955L358.5,365.91581094672205L360,363.63734711837L361.5,360.87094316547274L363,357.6275168205826L364.5,353.91986840570235L366,349.76263031526196L367.5,345.1722092687431L369,340.1667215608527L370.5,334.7659215647836L372,328.9911237707295L373.5,322.8651186673297L375,316.4120827980216L376.5,309.65748334726965L378,302.6279776332231L379.5,295.3513079034594L381,287.8561918490079L382.5,280.17220926874325L384,272.3296853314312L385.5,264.35957089614413L387,256.2933203633595L388.5,248.16276753881053L390,240.00000000000006L391.5,231.83723246118936L393,223.7066796366404L394.5,215.64042910385555L396,207.6703146685689L397.5,199.82779073125712L399,192.1438081509922L400.5,184.64869209654069L402,177.372022366777L403.5,170.34251665273047L405,163.58791720197874L406.5,157.13488133267043L408,151.00887622927058L409.5,145.23407843521647L411,139.83327843914742L412.5,134.827790731257L414,130.2373696847381L415.5,126.08013159429771L417,122.37248317941746L418.5,119.12905683452742L420,116.36265288163005L421.5,114.084189053278L423,112.30265740527045L424.5,111.02508882911786L426,110.25652530432473L427.5,110L429,110.2565253043247L430.5,111.02508882911789L432,112.30265740527048L433.5,114.08418905327794L435,116.36265288163001L436.5,119.12905683452735L438,122.37248317941749L439.5,126.08013159429763L441,130.23736968473804L442.5,134.82779073125664L444,139.8332784391473L445.5,145.2340784352164L447,151.00887622927047L448.5,157.13488133267015L450,163.58791720197843L451.5,170.34251665273035L453,177.37202236677686L454.5,184.64869209654057L456,192.14380815099162L457.5,199.82779073125675L459,207.67031466856875L460.5,215.64042910385587L462,223.70667963664025L463.5,231.83723246118922L465,239.99999999999991L466.5,248.1627675388106L468,256.2933203633596L469.5,264.35957089614396L471,272.3296853314311L472.5,280.1722092687433L474,287.8561918490082L475.5,295.3513079034591L477,302.627977633223L478.5,309.65748334726953L480,316.4120827980214L481.5,322.8651186673299L483,328.9911237707294L484.5,334.76592156478335L486,340.1667215608527L487.5,345.17220926874325L489,349.762630315262L490.5,353.9198684057023L492,357.6275168205825L493.5,360.8709431654727L495,363.6373471183701L496.5,365.915810946722L498,367.6973425947295L499.5,368.97491117088214L501,369.74347469567533L502.5,370L504,369.74347469567533L505.5,368.97491117088214L507,367.69734259472955L508.5,365.91581094672193L510,363.63734711836986L511.5,360.87094316547274L513,357.6275168205826L514.5,353.9198684057024L516,349.7626303152621L517.5,345.17220926874336L519,340.1667215608528L520.5,334.76592156478375L522,328.99112377072987L523.5,322.8651186673297L525,316.4120827980216L526.5,309.6574833472697L528,302.62797763322317L529.5,295.35130790345966L531,287.8561918490084L532.5,280.1722092687435L534,272.32968533143105L535.5,264.3595708961446L537,256.29332036335956L538.5,248.16276753881078L540,240.00000000000009L541.5,231.8372324611894L543,223.70667963664064L544.5,215.64042910385604L546,207.67031466856915L547.5,199.8277907312567L549,192.14380815099221L550.5,184.64869209654051L552,177.37202236677703L553.5,170.34251665273047L555,163.5879172019786L556.5,157.13488133267043L558,151.0088762292706L559.5,145.23407843521667L561,139.83327843914728L562.5,134.82779073125704L564,130.23736968473798L565.5,126.08013159429773L567,122.37248317941747L568.5,119.12905683452733L570,116.36265288163007L571.5,114.08418905327787L573,112.30265740527051L574.5,111.02508882911792L576,110.25652530432473L577.5,110L579,110.2565253043247L580.5,111.02508882911789L582,112.30265740527047L583.5,114.08418905327794L585,116.36265288163014L586.5,119.12905683452743L588,122.37248317941739L589.5,126.08013159429761L591,130.23736968473813L592.5,134.8277907312569L594,139.83327843914745L595.5,145.23407843521653L597,151.00887622927047L598.5,157.13488133267066L600,163.58791720197877L601.5,170.3425166527303L603,177.37202236677683L604.5,184.64869209654074L606,192.1438081509916L607.5,199.82779073125653L609,207.6703146685685L610.5,215.64042910385538L612,223.70667963663996L613.5,231.8372324611892L615,239.9999999999999L616.5,248.16276753881058L618,256.2933203633589L619.5,264.35957089614396L621,272.3296853314308L622.5,280.17220926874285L624,287.85619184900776L625.5,295.35130790345903L627,302.62797763322294L628.5,309.6574833472695L630,316.4120827980214L631.5,322.8651186673299L633,328.99112377072936L634.5,334.7659215647833L636,340.1667215608524L637.5,345.17220926874296L639,349.76263031526173L640.5,353.9198684057023L642,357.6275168205825L643.5,360.8709431654727L645,363.6373471183701L646.5,365.915810946722L648,367.6973425947295L649.5,368.9749111708821L651,369.7434746956753L652.5,370L654,369.74347469567533L655.5,368.97491117088214L657,367.69734259472955L658.5,365.91581094672193L660,363.63734711837003L661.5,360.87094316547274L663,357.6275168205826L664.5,353.9198684057024L666,349.76263031526213L667.5,345.17220926874313L669,340.1667215608526L670.5,334.76592156478347L672,328.99112377072925L673.5,322.86511866732974L675,316.41208279802163L676.5,309.6574833472697L678,302.62797763322317L679.5,295.35130790345966L681,287.856191849008L682.5,280.1722092687431L684,272.32968533143105L685.5,264.35957089614374L687,256.29332036335916L688.5,248.1627675388108L690,240.0000000000001L691.5,231.83723246118944L693,223.70667963664067L694.5,215.6404291038556L696,207.67031466856872L697.5,199.82779073125675L699,192.1438081509914L700.5,184.64869209654054L702,177.37202236677706L703.5,170.34251665273052L705,163.58791720197897L706.5,157.13488133267083L708,151.00887622927098L709.5,145.2340784352167L711,139.8332784391476L712.5,134.82779073125704L714,130.237369684738L715.5,126.08013159429774L717,122.37248317941749L718.5,119.12905683452753L720,116.36265288163021L721.5,114.08418905327812L723,112.30265740527051L724.5,111.02508882911792L726,110.25652530432473L727.5,110L729,110.2565253043247L730.5,111.02508882911786L732,112.30265740527047L733.5,114.08418905327781L735,116.36265288162986L736.5,119.12905683452725L738,122.37248317941737L739.5,126.0801315942976L741,130.2373696847381L742.5,134.82779073125687L744,139.83327843914742L745.5,145.2340784352165L747,151.0088762292701L748.5,157.13488133266992L750,163.58791720197837L751.5,170.3425166527303L753,177.3720223667768L754.5,184.6486920965407L756,192.143808150992L757.5,199.82779073125693L759,207.67031466856892L760.5,215.64042910385535L762,223.70667963663993L763.5,231.83723246118916L765,239.99999999999986L766.5,248.16276753881056L768,256.2933203633598L769.5,264.35957089614436L771,272.3296853314313L772.5,280.17220926874325L774,287.85619184900816L775.5,295.35130790345903L777,302.62797763322294L778.5,309.6574833472695L780,316.4120827980214L781.5,322.86511866732985L783,328.9911237707297L784.5,334.76592156478364L786,340.1667215608527L787.5,345.17220926874325L789,349.76263031526173L790.5,353.91986840570223L792,357.6275168205825L793.5,360.87094316547245L795,363.6373471183698L796.5,365.915810946722L798,367.6973425947295L799.5,368.9749111708821L801,369.7434746956753L802.5,370L804,369.74347469567533L805.5,368.9749111708822L807,367.6973425947296L808.5,365.9158109467222L810,363.63734711837003L811.5,360.8709431654728L813,357.6275168205826L814.5,353.9198684057024L816,349.76263031526213L817.5,345.17220926874313L819,340.1667215608526L820.5,334.7659215647838L822,328.9911237707299L823.5,322.86511866732974L825,316.41208279802163L826.5,309.6574833472697L828,302.6279776332232L829.5,295.3513079034597L831,287.85619184900804L832.5,280.1722092687431L834,272.32968533143156L835.5,264.35957089614465L837,256.2933203633596L838.5,248.16276753881084L840,240.00000000000017" fill="none" stroke="#cf6150" stroke-width="3"/><path d="M90 390L90 240" stroke="#007c83" stroke-width="2" fill="none"/><circle cx="90" cy="240" r="5" fill="#007c83" stroke="#007c83" stroke-width="3"/><path d="M127.5 390L127.5 110" stroke="#007c83" stroke-width="2" fill="none"/><circle cx="127.5" cy="110" r="5" fill="#007c83" stroke="#007c83" stroke-width="3"/><path d="M165 390L165 239.99999999999997" stroke="#007c83" stroke-width="2" fill="none"/><circle cx="165" cy="239.99999999999997" r="5" fill="#007c83" stroke="#007c83" stroke-width="3"/><path d="M202.5 390L202.5 370" stroke="#007c83" stroke-width="2" fill="none"/><circle cx="202.5" cy="370" r="5" fill="#007c83" stroke="#007c83" stroke-width="3"/><path d="M240 390L240 240.00000000000003" stroke="#007c83" stroke-width="2" fill="none"/><circle cx="240" cy="240.00000000000003" r="5" fill="#007c83" stroke="#007c83" stroke-width="3"/><path d="M277.5 390L277.5 110" stroke="#007c83" stroke-width="2" fill="none"/><circle cx="277.5" cy="110" r="5" fill="#007c83" stroke="#007c83" stroke-width="3"/><path d="M315 390L315 239.99999999999994" stroke="#007c83" stroke-width="2" fill="none"/><circle cx="315" cy="239.99999999999994" r="5" fill="#007c83" stroke="#007c83" stroke-width="3"/><path d="M352.5 390L352.5 370" stroke="#007c83" stroke-width="2" fill="none"/><circle cx="352.5" cy="370" r="5" fill="#007c83" stroke="#007c83" stroke-width="3"/><path d="M390 390L390 240.00000000000006" stroke="#007c83" stroke-width="2" fill="none"/><circle cx="390" cy="240.00000000000006" r="5" fill="#007c83" stroke="#007c83" stroke-width="3"/><path d="M427.5 390L427.5 110" stroke="#007c83" stroke-width="2" fill="none"/><circle cx="427.5" cy="110" r="5" fill="#007c83" stroke="#007c83" stroke-width="3"/><path d="M465 390L465 239.99999999999991" stroke="#007c83" stroke-width="2" fill="none"/><circle cx="465" cy="239.99999999999991" r="5" fill="#007c83" stroke="#007c83" stroke-width="3"/><path d="M502.5 390L502.5 370" stroke="#007c83" stroke-width="2" fill="none"/><circle cx="502.5" cy="370" r="5" fill="#007c83" stroke="#007c83" stroke-width="3"/><path d="M540 390L540 240.00000000000009" stroke="#007c83" stroke-width="2" fill="none"/><circle cx="540" cy="240.00000000000009" r="5" fill="#007c83" stroke="#007c83" stroke-width="3"/><path d="M577.5 390L577.5 110" stroke="#007c83" stroke-width="2" fill="none"/><circle cx="577.5" cy="110" r="5" fill="#007c83" stroke="#007c83" stroke-width="3"/><path d="M615 390L615 239.9999999999999" stroke="#007c83" stroke-width="2" fill="none"/><circle cx="615" cy="239.9999999999999" r="5" fill="#007c83" stroke="#007c83" stroke-width="3"/><path d="M652.5 390L652.5 370" stroke="#007c83" stroke-width="2" fill="none"/><circle cx="652.5" cy="370" r="5" fill="#007c83" stroke="#007c83" stroke-width="3"/><path d="M690 390L690 240.0000000000001" stroke="#007c83" stroke-width="2" fill="none"/><circle cx="690" cy="240.0000000000001" r="5" fill="#007c83" stroke="#007c83" stroke-width="3"/><path d="M727.5 390L727.5 110" stroke="#007c83" stroke-width="2" fill="none"/><circle cx="727.5" cy="110" r="5" fill="#007c83" stroke="#007c83" stroke-width="3"/><path d="M765 390L765 239.99999999999986" stroke="#007c83" stroke-width="2" fill="none"/><circle cx="765" cy="239.99999999999986" r="5" fill="#007c83" stroke="#007c83" stroke-width="3"/><path d="M802.5 390L802.5 370" stroke="#007c83" stroke-width="2" fill="none"/><circle cx="802.5" cy="370" r="5" fill="#007c83" stroke="#007c83" stroke-width="3"/><path d="M840 390L840 240.00000000000017" stroke="#007c83" stroke-width="2" fill="none"/><circle cx="840" cy="240.00000000000017" r="5" fill="#007c83" stroke="#007c83" stroke-width="3"/></svg>